<?xml version="1.0" ?><!DOCTYPE svg  PUBLIC '-//W3C//DTD SVG 1.1//EN'  'http://www.w3.org/Graphics/SVG/1.1/DTD/svg11.dtd'><svg id="Layer_1" style="enable-background:new 0 0 30.1 30.2;" version="1.1" viewBox="0 0 30.1 30.2" xml:space="preserve" xmlns="http://www.w3.org/2000/svg" xmlns:xlink="http://www.w3.org/1999/xlink"><style type="text/css">
	.st0{fill:none;stroke:#414042;stroke-width:1.25;stroke-linecap:round;stroke-linejoin:round;stroke-miterlimit:10;}
	.st1{fill:none;stroke:#414042;stroke-width:1.1713;stroke-linecap:round;stroke-linejoin:round;stroke-miterlimit:10;}
</style><g><path class="st0" d="M17.5,6.4c4.1-2.6,2-4.7,2-4.7c-5.2,0.2-5.3,6.2-5.3,6.2c-0.1,1.2-1.4,0.7-1.4,0.7c-1.5-0.7-3.7-1.3-5.6-0.1   c-3.2,2-6.8,7.4-2.2,15s6.6,4,9.4,3.8c2.8-0.2,3.4,2,6.6,1.2c3.2-0.8,5.8-6.4,5.2-7.2c-0.8-1-4.4-2.6-4.5-5.5   c-0.2-3.4,0.8-3.4,3.3-5.2C26.4,9.8,20,6.4,15.9,9"/></g></svg>